<svg xmlns="http://www.w3.org/2000/svg" width="25" height="23" viewBox="0 0 25 23">
    <g fill="#FFF" fill-rule="nonzero" stroke="#FFF">
        <path d="M12.5 7C18.075 7 24 5.948 24 4c0-1.949-5.925-3-11.5-3S1 2.052 1 4s5.925 3 11.5 3zm0-5.487c6.483 0 11 1.31 11 2.487 0 1.176-4.518 2.487-11 2.487S1.5 5.177 1.5 4c0-1.176 4.518-2.487 11-2.487z"/>
        <path d="M23.75 6c-.139 0-.25.129-.25.288V8.63c0 1.322-4.518 2.794-11 2.794s-11-1.472-11-2.794V6.288C1.5 6.129 1.39 6 1.25 6c-.138 0-.25.129-.25.288V8.63C1 10.82 6.925 12 12.5 12S24 10.82 24 8.63V6.288c0-.159-.112-.288-.25-.288z"/>
        <path d="M23.75 11c-.139 0-.25.129-.25.288v2.342c0 1.322-4.518 2.794-11 2.794s-11-1.472-11-2.794v-2.342c0-.16-.111-.288-.25-.288-.138 0-.25.129-.25.288v2.342C1 15.82 6.925 17 12.5 17S24 15.82 24 13.63v-2.342c0-.159-.112-.288-.25-.288z"/>
        <path d="M23.75 16c-.139 0-.25.129-.25.288v2.342c0 1.322-4.518 2.794-11 2.794s-11-1.472-11-2.794v-2.342c0-.16-.111-.288-.25-.288-.138 0-.25.129-.25.288v2.342C1 20.82 6.925 22 12.5 22S24 20.82 24 18.63v-2.342c0-.159-.112-.288-.25-.288z"/>
    </g>
</svg>
