<svg xmlns="http://www.w3.org/2000/svg" width="404" height="558" viewBox="0 0 404 558">
    <defs>
      <radialGradient id="a" cx="49.99%" cy="50.003%" r="48.397%" fx="49.99%" fy="50.003%" gradientTransform="matrix(1 0 0 .99054 0 .005)">
        <stop offset="0%" stop-color="#FFF"/>
        <stop offset="100%" stop-color="#FFF" stop-opacity="0"/>
      </radialGradient>
      <radialGradient id="b" cx="49.985%" cy="50.004%" r="48.392%" fx="49.985%" fy="50.004%" gradientTransform="matrix(1 0 0 .99054 0 .005)">
        <stop offset="0%" stop-color="#FFF"/>
        <stop offset="100%" stop-color="#FFF" stop-opacity="0"/>
      </radialGradient>
      <radialGradient id="c" cx="49.979%" cy="50.006%" r="48.429%" fx="49.979%" fy="50.006%" gradientTransform="matrix(1 0 0 .99054 0 .005)">
        <stop offset="0%" stop-color="#FFF"/>
        <stop offset="100%" stop-color="#FFF" stop-opacity="0"/>
      </radialGradient>
      <radialGradient id="d" cx="49.969%" cy="50.009%" r="48.439%" fx="49.969%" fy="50.009%" gradientTransform="matrix(1 0 0 .99054 0 .005)">
        <stop offset="0%" stop-color="#FFF"/>
        <stop offset="100%" stop-color="#FFF" stop-opacity="0"/>
      </radialGradient>
    </defs>
    <g fill="none" fill-rule="nonzero">
      <g fill="#39D5FF">
          <path d="M0 0h11v11H0zM15 0h11v11H15zM29 0h11v11H29zM44 0h11v11H44zM58 0h11v11H58zM73 0h11v11H73zM87 0h11v11H87zM102 0h11v11h-11zM116 0h11v11h-11zM131 0h11v11h-11zM145 0h11v11h-11zM160 0h11v11h-11zM174 0h11v11h-11zM189 0h11v11h-11zM204 0h11v11h-11zM15 14h11v11H15zM29 14h11v11H29zM44 14h11v11H44zM58 14h11v11H58zM73 14h11v11H73zM87 14h11v11H87zM102 14h11v11h-11zM116 14h11v11h-11zM131 14h11v11h-11zM145 14h11v11h-11zM160 14h11v11h-11zM174 14h11v11h-11zM189 14h11v11h-11zM204 14h11v11h-11zM15 29h11v11H15zM29 29h11v11H29zM44 29h11v11H44zM58 29h11v11H58zM73 29h11v11H73zM87 29h11v11H87zM102 29h11v11h-11zM116 29h11v11h-11zM131 29h11v11h-11zM145 29h11v11h-11zM160 29h11v11h-11zM174 29h11v11h-11zM189 29h11v11h-11zM29 43h11v11H29zM44 43h11v11H44zM58 43h11v11H58zM73 43h11v11H73zM87 43h11v11H87zM102 43h11v11h-11zM116 43h11v11h-11zM131 43h11v11h-11zM145 43h11v11h-11zM160 43h11v11h-11zM174 43h11v11h-11zM189 43h11v11h-11zM58 57h11v11H58zM73 57h11v11H73zM87 57h11v11H87zM102 57h11v11h-11zM116 57h11v11h-11zM131 57h11v11h-11zM145 57h11v11h-11zM174 57h11v11h-11zM189 57h11v11h-11zM44 72h11v11H44zM73 72h11v11H73zM87 72h11v11H87zM102 72h11v11h-11zM189 72h11v11h-11zM204 72h11v11h-11zM58 86h11v11H58zM73 86h11v11H73zM87 86h11v11H87zM102 86h11v11h-11zM219 86h11v11h-11zM87 101h11v11H87zM102 101h11v11h-11zM160 101h11v11h-11zM174 101h11v11h-11zM189 101h11v11h-11zM204 101h11v11h-11zM87 115h11v11H87zM102 115h11v11h-11zM116 115h11v11h-11zM131 115h11v11h-11zM145 115h11v11h-11zM204 115h11v11h-11zM219 115h11v11h-11zM233 115h11v11h-11zM262 115h11v11h-11zM116 129h11v11h-11zM131 129h11v11h-11zM145 129h11v11h-11zM160 129h11v11h-11zM174 129h11v11h-11zM277 129h11v11h-11zM160 144h11v11h-11zM174 144h11v11h-11zM291 144h11v11h-11zM174 158h11v11h-11zM233 158h11v11h-11zM248 158h11v11h-11zM262 158h11v11h-11zM189 172h11v11h-11zM204 172h11v11h-11zM219 172h11v11h-11zM233 172h11v11h-11zM248 172h11v11h-11zM262 172h11v11h-11zM277 172h11v11h-11zM219 187h11v11h-11zM233 187h11v11h-11zM248 187h11v11h-11zM262 187h11v11h-11zM277 187h11v11h-11zM291 187h11v11h-11zM204 201h11v11h-11zM219 201h11v11h-11zM233 201h11v11h-11zM248 201h11v11h-11zM262 201h11v11h-11zM277 201h11v11h-11zM291 201h11v11h-11zM306 201h11v11h-11zM320 201h11v11h-11zM131 215h11v11h-11zM204 215h11v11h-11zM219 215h11v11h-11zM233 215h11v11h-11zM248 215h11v11h-11zM262 215h11v11h-11zM277 215h11v11h-11zM291 215h11v11h-11zM306 215h11v11h-11zM320 215h11v11h-11zM335 215h11v11h-11zM189 230h11v11h-11zM219 230h11v11h-11zM204 230h11v11h-11zM233 230h11v11h-11zM248 230h11v11h-11zM262 230h11v11h-11zM277 230h11v11h-11zM291 230h11v11h-11zM306 230h11v11h-11zM320 230h11v11h-11zM335 230h11v11h-11zM349 230h11v11h-11zM189 244h11v11h-11zM204 244h11v11h-11zM219 244h11v11h-11zM233 244h11v11h-11zM248 244h11v11h-11zM262 244h11v11h-11zM277 244h11v11h-11zM291 244h11v11h-11zM306 244h11v11h-11zM320 244h11v11h-11zM335 244h11v11h-11zM349 244h11v11h-11zM364 244h11v11h-11zM378 244h11v11h-11zM204 258h11v11h-11zM219 258h11v11h-11zM233 258h11v11h-11zM248 258h11v11h-11zM262 258h11v11h-11zM277 258h11v11h-11zM291 258h11v11h-11zM306 258h11v11h-11zM320 258h11v11h-11zM335 258h11v11h-11zM349 258h11v11h-11zM364 258h11v11h-11zM378 258h11v11h-11zM393 258h11v11h-11zM204 274h11v11h-11zM219 274h11v11h-11zM233 274h11v11h-11zM248 274h11v11h-11zM262 274h11v11h-11zM277 274h11v11h-11zM291 274h11v11h-11zM306 274h11v11h-11zM320 274h11v11h-11zM335 274h11v11h-11zM349 274h11v11h-11zM364 274h11v11h-11zM378 274h11v11h-11zM393 274h11v11h-11zM219 288h11v11h-11zM233 288h11v11h-11zM248 288h11v11h-11zM262 288h11v11h-11zM277 288h11v11h-11zM291 288h11v11h-11zM306 288h11v11h-11zM320 288h11v11h-11zM335 288h11v11h-11zM349 288h11v11h-11zM364 288h11v11h-11zM378 288h11v11h-11zM219 303h11v11h-11zM233 303h11v11h-11zM248 303h11v11h-11zM262 303h11v11h-11zM277 303h11v11h-11zM291 303h11v11h-11zM306 303h11v11h-11zM320 303h11v11h-11zM335 303h11v11h-11zM349 303h11v11h-11zM364 303h11v11h-11zM378 303h11v11h-11zM233 317h11v11h-11zM248 317h11v11h-11zM262 317h11v11h-11zM277 317h11v11h-11zM291 317h11v11h-11zM306 317h11v11h-11zM320 317h11v11h-11zM335 317h11v11h-11zM349 317h11v11h-11zM364 317h11v11h-11zM248 331h11v11h-11zM262 331h11v11h-11zM277 331h11v11h-11zM291 331h11v11h-11zM306 331h11v11h-11zM320 331h11v11h-11zM335 331h11v11h-11zM349 331h11v11h-11zM364 331h11v11h-11zM248 346h11v11h-11zM262 346h11v11h-11zM277 346h11v11h-11zM291 346h11v11h-11zM306 346h11v11h-11zM320 346h11v11h-11zM335 346h11v11h-11zM349 346h11v11h-11zM87 360h11v11H87zM248 360h11v11h-11zM262 360h11v11h-11zM277 360h11v11h-11zM291 360h11v11h-11zM306 360h11v11h-11zM320 360h11v11h-11zM335 360h11v11h-11zM58 374h11v11H58zM248 374h11v11h-11zM262 374h11v11h-11zM277 374h11v11h-11zM291 374h11v11h-11zM306 374h11v11h-11zM320 374h11v11h-11zM248 389h11v11h-11zM262 389h11v11h-11zM277 389h11v11h-11zM291 389h11v11h-11zM306 389h11v11h-11zM320 389h11v11h-11zM204 403h11v11h-11zM233 403h11v11h-11zM248 403h11v11h-11zM262 403h11v11h-11zM277 403h11v11h-11zM291 403h11v11h-11zM306 403h11v11h-11zM233 417h11v11h-11zM248 417h11v11h-11zM262 417h11v11h-11zM277 417h11v11h-11zM291 417h11v11h-11zM233 432h11v11h-11zM248 432h11v11h-11zM262 432h11v11h-11zM277 432h11v11h-11zM291 432h11v11h-11zM233 446h11v11h-11zM248 446h11v11h-11zM262 446h11v11h-11zM233 460h11v11h-11zM248 460h11v11h-11zM233 475h11v11h-11zM248 475h11v11h-11zM219 489h11v11h-11zM233 489h11v11h-11zM248 489h11v11h-11zM219 504h11v11h-11zM233 504h11v11h-11zM248 504h11v11h-11zM219 518h11v11h-11zM233 518h11v11h-11zM277 518h11v11h-11zM291 518h11v11h-11zM219 532h11v11h-11zM233 532h11v11h-11zM248 532h11v11h-11zM393 532h11v11h-11zM248 547h11v11h-11zM262 547h11v11h-11z"/>
      </g>
      <g
        transform="translate(305 301)"
        id="sao-paulo"
      >
        <ellipse cx="41.049" cy="41.567" fill="url(#a)" opacity=".2" rx="40.612" ry="41">
          <animate
            attributeType="XML"
            attributeName="fill"
            values="#fff;#13326b;#fff;#fff"
            dur="0.7s"
            repeatCount="indefinite"/>
        </ellipse>
        <ellipse cx="41.049" cy="41.567" fill="url(#b)" rx="28.096" ry="28.365"/>
      </g>

      <g
        transform="translate(150 200)"
        id="quito"
      >
        <ellipse cx="41.049" cy="41.567" fill="url(#b)" opacity=".2" rx="40.612" ry="41">
          <animate
            attributeType="XML"
            attributeName="fill"
            values="#fff;#13326b;#fff;#fff"
            dur="0.97s"
            repeatCount="indefinite"/>
        </ellipse>
        <ellipse cx="41.049" cy="41.567" fill="url(#c)" rx="28.096" ry="28.365"/>
      </g>

      <g
        transform="translate(200 250)"
        id="miraflores"
      >
        <ellipse cx="41.049" cy="41.567" fill="url(#c)" opacity=".2" rx="40.612" ry="41">
          <animate
            attributeType="XML"
            attributeName="fill"
            values="#fff;#13326b;#fff;#fff"
            dur="1.11s"
            repeatCount="indefinite"/>
        </ellipse>
        <ellipse cx="41.049" cy="41.567" fill="url(#d)" rx="28.096" ry="28.365"/>
      </g>

      <g transform="translate(326.613 322.82)">
        <ellipse cx="19.437" cy="19.748" fill="url(#d)" opacity=".2" rx="19.432" ry="19.617">
          <animate
            attributeType="XML"
            attributeName="fill"
            values="#fff;#13326b;#fff;#fff"
            dur="1.1s"
            repeatCount="indefinite"/>
        </ellipse>
        <ellipse cx="19.437" cy="19.748" fill="url(#a)" rx="13.439" ry="13.568"/>
      </g>
      <g transform="translate(281 347)">
        <ellipse cx="41.049" cy="41.567" fill="url(#a)" opacity=".2" rx="40.612" ry="41">
          <animate
            attributeType="XML"
            attributeName="fill"
            values="#fff;#13326b;#fff;#fff"
            dur="1.9s"
            repeatCount="indefinite"/>
        </ellipse>
        <ellipse cx="41.049" cy="41.567" fill="url(#b)" rx="28.096" ry="28.365"/>
      </g>
      <g transform="translate(302.613 368.82)">
          <ellipse cx="19.437" cy="19.748" fill="url(#c)" opacity=".2" rx="19.432" ry="19.617">
            <animate
              attributeType="XML"
              attributeName="fill"
              values="#fff;#13326b;#fff;#fff"
              dur="2.3s"
              repeatCount="indefinite"/>
        </ellipse>
        <ellipse cx="19.437" cy="19.748" fill="url(#d)" rx="13.439" ry="13.568"/>
      </g>
      <g transform="translate(134 105)">
        <ellipse cx="41.049" cy="41.567" fill="url(#a)" opacity=".2" rx="40.612" ry="41">
        <animate
          attributeType="XML"
          attributeName="fill"
          values="#fff;#13326b;#fff;#fff"
          dur="1.3s"
          repeatCount="indefinite"/>
        </ellipse>
        <ellipse cx="41.049" cy="41.567" fill="url(#b)" rx="28.096" ry="28.365"/>
      </g>
      <g transform="translate(155.613 126.82)">
        <ellipse cx="19.437" cy="19.748" fill="url(#c)" opacity=".2" rx="19.432" ry="19.617">
        <animate
          attributeType="XML"
          attributeName="fill"
          values="#fff;#13326b;#fff;#fff"
          dur="1.7s"
          repeatCount="indefinite"/>
        </ellipse>
        <ellipse cx="19.437" cy="19.748" fill="url(#d)" rx="13.439" ry="13.568"/>
      </g>
    </g>
</svg>
