<svg xmlns="http://www.w3.org/2000/svg" width="25" height="23" viewBox="0 0 25 23">
  <g fill="#FFF" stroke="#FFF" transform="translate(1 1)">
    <path d="M11.5,6 C17.0752645,6 23,4.94846154 23,3 C23,1.05128205 17.0750141,0 11.5,0 C5.92498585,0 0,1.05153846 0,3 C0,4.94846154 5.92498585,6 11.5,6 Z M11.5,0.512820513 C17.9827376,0.512820513 22.4993252,1.82358974 22.4993252,3 C22.4993252,4.17641026 17.9819866,5.48717949 11.5,5.48717949 C5.01801341,5.48717949 0.500674823,4.17641026 0.500674823,3 C0.500674823,1.82358974 5.01776307,0.512820513 11.5,0.512820513 Z"/>
    <path d="M22.7496653,5 C22.6109799,5 22.4993306,5.12903845 22.4993306,5.28803226 L22.4993306,7.63031059 C22.4993306,8.95151457 17.9820412,10.4239355 11.4998748,10.4239355 C5.01770846,10.4239355 0.500669373,8.95151457 0.500669373,7.63031059 L0.500669373,5.28803226 C0.500669373,5.12903845 0.388769768,5 0.250334687,5 C0.11164927,5 0,5.12903845 0,5.28803226 L0,7.63031059 C0,9.81906774 5.9251717,11 11.4998748,11 C17.074578,11 23,9.81906774 23,7.63031059 L23,5.28803226 C23,5.12903845 22.8875997,5 22.7496653,5 Z"/>
    <path d="M22.7496653,10 C22.6109799,10 22.4993306,10.1287442 22.4993306,10.2880184 L22.4993306,12.6304724 C22.4993306,13.9519009 17.9820412,15.4239631 11.4998748,15.4239631 C5.01770846,15.4239631 0.500669373,13.9519009 0.500669373,12.6304724 L0.500669373,10.2880184 C0.500669373,10.1287442 0.388769768,10 0.250334687,10 C0.11164927,10 0,10.1287442 0,10.2880184 L0,12.6304724 C0,14.8194124 5.9251717,16 11.4998748,16 C17.074578,16 23,14.8191244 23,12.6304724 L23,10.2880184 C23,10.1290323 22.8875997,10 22.7496653,10 Z"/>
    <path d="M22.7496653,15 C22.6109799,15 22.4993306,15.1287442 22.4993306,15.2880184 L22.4993306,17.6304724 C22.4993306,18.9519009 17.9820412,20.4239631 11.4998748,20.4239631 C5.01770846,20.4239631 0.500669373,18.9519009 0.500669373,17.6304724 L0.500669373,15.2880184 C0.500669373,15.1287442 0.388769768,15 0.250334687,15 C0.11164927,15 0,15.1287442 0,15.2880184 L0,17.6304724 C0,19.8194124 5.9251717,21 11.4998748,21 C17.074578,21 23,19.8191244 23,17.6304724 L23,15.2880184 C23,15.1293203 22.8875997,15 22.7496653,15 Z"/>
  </g>
</svg>
