<?xml version="1.0" encoding="utf-8"?>
<!-- Generator: Adobe Illustrator 23.1.1, SVG Export Plug-In . SVG Version: 6.00 Build 0)  -->
<svg version="1.1" id="Layer_1" xmlns="http://www.w3.org/2000/svg" xmlns:xlink="http://www.w3.org/1999/xlink" x="0px" y="0px"
	 viewBox="0 0 24 25" style="enable-background:new 0 0 24 25;" xml:space="preserve">
<style type="text/css">
	.st0{enable-background:new    ;}
	.st1{fill:#FFFFFF;}
</style>
<g class="st0">
	<path class="st1" d="M23.3,3.7c0.2,0.1,0.4,0.2,0.5,0.4S24,4.4,24,4.6v19.2c0,0.2-0.1,0.3-0.2,0.4s-0.2,0.2-0.4,0.2
		c0,0-0.1,0-0.1,0s-0.1,0-0.1,0l-7.5-3l-7.5,3l-7.5-3c-0.2-0.1-0.4-0.2-0.5-0.4S0,20.8,0,20.5V1.1c0-0.2,0.1-0.3,0.2-0.4
		s0.2-0.2,0.4-0.2c0,0,0.1,0,0.1,0s0.1,0,0.1,0l7.5,3l7.5-3L23.3,3.7z M1.5,2.5v17.6l6,2.4V4.7L1.5,2.5z M9,4.7v17.9l6-2.4V2.4
		L9,4.7z M22.5,22.5V5l-6-2.6v17.8L22.5,22.5z"/>
</g>
</svg>
