<?xml version="1.0" encoding="utf-8"?>
<svg version="1.1" id="Layer_1" xmlns="http://www.w3.org/2000/svg" xmlns:xlink="http://www.w3.org/1999/xlink" x="0px" y="0px"
	 viewBox="0 0 16 11" style="enable-background:new 0 0 16 11;" xml:space="preserve">
<style type="text/css">
	.st0{enable-background:new    ;}
</style>
<g class="st0" fill="#fff">
	<path d="M15.5,1.4c0,0.2-0.1,0.4-0.2,0.5l-6.7,8.3c-0.2,0.2-0.4,0.3-0.7,0.3s-0.5-0.1-0.7-0.3L0.7,1.9C0.6,1.7,0.5,1.5,0.5,1.3
		c0-0.2,0.1-0.4,0.3-0.6C1,0.6,1.2,0.5,1.5,0.6S1.9,0.7,2,0.9l6,7.4l6-7.4c0.1-0.2,0.3-0.3,0.6-0.3s0.4,0,0.6,0.2
		C15.4,0.9,15.5,1.1,15.5,1.4z"/>
</g>
</svg>
